<svg width="414" height="245" viewBox="0 0 414 245" fill="none" xmlns="http://www.w3.org/2000/svg">
<path d="M133.716 217.777C84.7404 168.475 17.4232 197.235 -2 217.777V47H414V217.777C385.087 167.287 322.785 196.74 294.511 217.777C256.402 238.32 182.692 267.08 133.716 217.777Z" fill="#CF0A0A"/>
<path d="M133.716 185.44C84.7404 131.904 17.4232 163.134 -2 185.44V0H414V185.44C385.087 130.614 322.785 162.596 294.511 185.44C256.402 207.747 182.692 238.976 133.716 185.44Z" fill="#171571"/>
<path d="M162.348 103.48L157.488 96.946C156.048 97.234 154.644 97.378 153.276 97.378C149.712 97.378 146.436 96.55 143.448 94.894C140.496 93.238 138.138 90.934 136.374 87.982C134.646 84.994 133.782 81.646 133.782 77.938C133.782 74.23 134.646 70.9 136.374 67.948C138.138 64.996 140.496 62.692 143.448 61.036C146.436 59.38 149.712 58.552 153.276 58.552C156.84 58.552 160.098 59.38 163.05 61.036C166.038 62.692 168.378 64.996 170.07 67.948C171.798 70.9 172.662 74.23 172.662 77.938C172.662 81.178 171.996 84.148 170.664 86.848C169.368 89.512 167.55 91.726 165.21 93.49L173.526 103.48H162.348ZM143.232 77.938C143.232 81.286 144.132 83.968 145.932 85.984C147.768 87.964 150.216 88.954 153.276 88.954C156.3 88.954 158.712 87.946 160.512 85.93C162.348 83.914 163.266 81.25 163.266 77.938C163.266 74.59 162.348 71.926 160.512 69.946C158.712 67.93 156.3 66.922 153.276 66.922C150.216 66.922 147.768 67.912 145.932 69.892C144.132 71.872 143.232 74.554 143.232 77.938ZM186.977 59.092V81.772C186.977 84.04 187.535 85.786 188.651 87.01C189.767 88.234 191.405 88.846 193.565 88.846C195.725 88.846 197.381 88.234 198.533 87.01C199.685 85.786 200.261 84.04 200.261 81.772V59.092H209.495V81.718C209.495 85.102 208.775 87.964 207.335 90.304C205.895 92.644 203.951 94.408 201.503 95.596C199.091 96.784 196.391 97.378 193.403 97.378C190.415 97.378 187.733 96.802 185.357 95.65C183.017 94.462 181.163 92.698 179.795 90.358C178.427 87.982 177.743 85.102 177.743 81.718V59.092H186.977ZM225.213 59.092V97H215.979V59.092H225.213ZM230.339 77.992C230.339 74.248 231.149 70.918 232.769 68.002C234.389 65.05 236.639 62.764 239.519 61.144C242.435 59.488 245.729 58.66 249.401 58.66C253.901 58.66 257.753 59.848 260.957 62.224C264.161 64.6 266.303 67.84 267.383 71.944H257.231C256.475 70.36 255.395 69.154 253.991 68.326C252.623 67.498 251.057 67.084 249.293 67.084C246.449 67.084 244.145 68.074 242.381 70.054C240.617 72.034 239.735 74.68 239.735 77.992C239.735 81.304 240.617 83.95 242.381 85.93C244.145 87.91 246.449 88.9 249.293 88.9C251.057 88.9 252.623 88.486 253.991 87.658C255.395 86.83 256.475 85.624 257.231 84.04H267.383C266.303 88.144 264.161 91.384 260.957 93.76C257.753 96.1 253.901 97.27 249.401 97.27C245.729 97.27 242.435 96.46 239.519 94.84C236.639 93.184 234.389 90.898 232.769 87.982C231.149 85.066 230.339 81.736 230.339 77.992ZM295.015 97L282.271 80.26V97H273.037V59.092H282.271V75.724L294.907 59.092H305.761L291.073 77.668L306.301 97H295.015ZM133.782 126.992C133.782 123.248 134.592 119.918 136.212 117.002C137.832 114.05 140.082 111.764 142.962 110.144C145.878 108.488 149.172 107.66 152.844 107.66C157.344 107.66 161.196 108.848 164.4 111.224C167.604 113.6 169.746 116.84 170.826 120.944H160.674C159.918 119.36 158.838 118.154 157.434 117.326C156.066 116.498 154.5 116.084 152.736 116.084C149.892 116.084 147.588 117.074 145.824 119.054C144.06 121.034 143.178 123.68 143.178 126.992C143.178 130.304 144.06 132.95 145.824 134.93C147.588 136.91 149.892 137.9 152.736 137.9C154.5 137.9 156.066 137.486 157.434 136.658C158.838 135.83 159.918 134.624 160.674 133.04H170.826C169.746 137.144 167.604 140.384 164.4 142.76C161.196 145.1 157.344 146.27 152.844 146.27C149.172 146.27 145.878 145.46 142.962 143.84C140.082 142.184 137.832 139.898 136.212 136.982C134.592 134.066 133.782 130.736 133.782 126.992ZM194.409 146.378C190.845 146.378 187.569 145.55 184.581 143.894C181.629 142.238 179.271 139.934 177.507 136.982C175.779 133.994 174.915 130.646 174.915 126.938C174.915 123.23 175.779 119.9 177.507 116.948C179.271 113.996 181.629 111.692 184.581 110.036C187.569 108.38 190.845 107.552 194.409 107.552C197.973 107.552 201.231 108.38 204.183 110.036C207.171 111.692 209.511 113.996 211.203 116.948C212.931 119.9 213.795 123.23 213.795 126.938C213.795 130.646 212.931 133.994 211.203 136.982C209.475 139.934 207.135 142.238 204.183 143.894C201.231 145.55 197.973 146.378 194.409 146.378ZM194.409 137.954C197.433 137.954 199.845 136.946 201.645 134.93C203.481 132.914 204.399 130.25 204.399 126.938C204.399 123.59 203.481 120.926 201.645 118.946C199.845 116.93 197.433 115.922 194.409 115.922C191.349 115.922 188.901 116.912 187.065 118.892C185.265 120.872 184.365 123.554 184.365 126.938C184.365 130.286 185.265 132.968 187.065 134.984C188.901 136.964 191.349 137.954 194.409 137.954ZM228.004 108.092V130.772C228.004 133.04 228.562 134.786 229.678 136.01C230.794 137.234 232.432 137.846 234.592 137.846C236.752 137.846 238.408 137.234 239.56 136.01C240.712 134.786 241.288 133.04 241.288 130.772V108.092H250.522V130.718C250.522 134.102 249.802 136.964 248.362 139.304C246.922 141.644 244.978 143.408 242.53 144.596C240.118 145.784 237.418 146.378 234.43 146.378C231.442 146.378 228.76 145.802 226.384 144.65C224.044 143.462 222.19 141.698 220.822 139.358C219.454 136.982 218.77 134.102 218.77 130.718V108.092H228.004ZM290.918 146H281.684L266.24 122.618V146H257.006V108.092H266.24L281.684 131.582V108.092H290.918V146ZM324.882 108.092V115.49H314.838V146H305.604V115.49H295.56V108.092H324.882Z" fill="#E5E5E5"/>
<path fill-rule="evenodd" clip-rule="evenodd" d="M18.7597 -112.901L23.454 -120.293L22.117 -63.3722C22.7631 -63.352 23.4105 -63.3213 24.0591 -63.28L25.473 -123.472L43.272 -151.499L52.023 -119.015L35.5184 -61.4383C36.147 -61.2743 36.7712 -61.1005 37.391 -60.9172L53.0026 -115.379L55.1657 -107.349L41.5534 -59.5185C49.8254 -56.3976 57.1944 -51.5289 63.3434 -45.3742L97.396 -80.4163L105.561 -82.2111L66.5568 -41.9129C66.9915 -41.409 67.4188 -40.8982 67.8384 -40.3805L109.073 -82.983L140.034 -89.7883L124.519 -59.7814L74.4769 -30.4956C74.8015 -29.9052 75.1176 -29.3092 75.4252 -28.7078L122.783 -56.4223L118.948 -49.005L77.3744 -24.5604C80.8636 -16.4427 82.8578 -7.49698 83.0489 1.8278L130.332 2.20543L137.185 7.05905L82.9825 6.7433C82.9499 7.43161 82.9074 8.12153 82.8549 8.81287L140.133 9.14653L166.119 27.55L135.427 37.5021L80.9349 20.8351C80.7695 21.5078 80.595 22.1762 80.4116 22.84L131.991 38.6162L124.404 41.0762L79.0224 27.3027C75.9841 36.0534 71.365 43.904 65.5868 50.5224L98.2737 86.5659L99.8005 95.2246L62.2936 54.0372C61.8149 54.5132 61.3297 54.9816 60.8383 55.442L100.457 98.9486L106.246 131.781L78.3557 115.848L51.5928 62.6924C51.0346 63.0551 50.4713 63.409 49.903 63.7539L75.2336 114.064L68.3394 110.126L45.9866 65.9489C38.3635 69.8782 29.9886 72.2547 21.2839 72.7464L20.0014 123.248L15.5433 130.268L16.8925 72.8335C16.2462 72.8227 15.5986 72.8014 14.9497 72.7695L13.5244 133.447L-4.51091 161.846L-13.1473 129.788L3.66404 71.1411C3.03236 70.9882 2.40491 70.8256 1.78185 70.6534L-14.1269 126.151L-16.4046 117.696L-2.61796 69.253C-10.8697 66.2724 -18.2451 61.562 -24.4361 55.5707L-58.6349 90.7634L-66.3892 92.4678L-27.5493 52.3397C-27.9932 51.8456 -28.4299 51.3444 -28.859 50.8364L-69.901 93.2397L-101.273 100.135L-85.9614 70.5215L-35.684 41.0982C-36.0199 40.5146 -36.3475 39.9253 -36.6666 39.3305L-84.2247 67.1624L-80.1864 59.352L-38.791 35.012C-42.4384 26.8883 -44.5756 17.9019 -44.8857 8.51449L-91.5706 8.14163L-98.0791 3.53228L-44.8887 3.84214C-44.8669 3.15387 -44.8353 2.46388 -44.7937 1.77238L-101.027 1.4448L-127.358 -17.203L-97.0675 -27.0247L-43.0118 -10.491C-42.8549 -11.1663 -42.6888 -11.8372 -42.5139 -12.5037L-93.6317 -28.1388L-85.6431 -30.7291L-41.1056 -17.2119C-38.0893 -26.1744 -33.4206 -34.2106 -27.5459 -40.9693L-59.5129 -76.2189L-60.9629 -84.4421L-24.4285 -44.3226C-23.9524 -44.8015 -23.4699 -45.2727 -22.981 -45.7361L-61.6195 -88.1662L-67.4854 -121.434L-39.9601 -105.71L-13.5251 -53.2055C-12.9673 -53.569 -12.4044 -53.9236 -11.8365 -54.2693L-36.8379 -103.926L-29.5786 -99.779L-7.71811 -56.575C0.0589087 -60.5612 8.61408 -62.933 17.5011 -63.339L18.7597 -112.901Z" fill="#DBDE30" fill-opacity="0.75"/>
</svg>
